PathFileType	4	(X/Y/Z)	6_coords_data.trc
DataRate	CameraRate	NumFrames	NumMarkers	Units	OrigDataRate	OrigDataStartFrame	OrigNumFrames
30.0	30.0	6	21	m	30.0	52	82
Frame#	Time	THUMB_TIP	THUMB_IP	THUMB_MCP	THUMB_CMC	INDEX_TIP	INDEX_DIP	INDEX_PIP	INDEX_MCP	MIDDLE_TIP	MIDDLE_DIP	MIDDLE_PIP	MIDDLE_MCP	RING_TIP	RING_DIP	RING_PIP	RING_MCP	PINKY_TIP	PINKY_DIP	PINKY_PIP	PINKY_MCP	WRIST
X1	Y1	Z1	X2	Y2	Z2	X3	Y3	Z3	X4	Y4	Z4	X5	Y5	Z5	X6	Y6	Z6	X7	Y7	Z7	X8	Y8	Z8	X9	Y9	Z9	X10	Y10	Z10	X11	Y11	Z11	X12	Y12	Z12	X13	Y13	Z13	X14	Y14	Z14	X15	Y15	Z15	X16	Y16	Z16	X17	Y17	Z17	X18	Y18	Z18	X19	Y19	Z19	X20	Y20	Z20	X21	Y21	Z21
51	1.7	0.024447700500488282	-0.11352400207519531	0.9930900268554688	0.022278600692749024	-0.08974530029296875	1.00877001953125	0.009295419692993164	-0.07218340301513672	1.032550048828125	0.003073539972305298	-0.03821950149536133	1.04752001953125	0.06082690048217773	-0.051223899841308596	0.9814429931640625	0.04534719848632812	-0.05727859878540039	0.9691259765625	0.02189240074157715	-0.06210380172729492	0.9651199951171875	-0.009375679969787597	-0.05505440139770508	0.992052001953125	0.061261501312255856	-0.033332901000976564	0.9886749877929687	0.050434299468994144	-0.03441960144042969	0.9705770263671875	0.022458900451660158	-0.035843700408935544	0.9590289916992187	-0.01468690013885498	-0.030988100051879883	0.9844500122070312	0.056961101531982423	-0.01907740020751953	1.0016599731445313	0.0508473014831543	-0.01576319980621338	0.9830349731445313	0.027026899337768556	-0.011656000137329101	0.9665159912109375	-0.010958299636840821	-0.0074774899482727055	0.9861430053710938	0.03979169845581055	-0.0033734300136566164	1.0043900146484375	0.03773669815063477	0.003325890064239502	0.9884710083007813	0.023117300033569335	0.010315400123596191	0.9781920166015625	-0.00402908992767334	0.01300529956817627	0.9937030029296875	-0.021142999649047853	-0.008492469787597656	1.066719970703125
52	1.7333333333333334	0.02653610038757324	-0.11190599822998047	0.9924340209960938	0.02382460021972656	-0.08848860168457032	1.0081699829101562	0.009971989631652831	-0.0715167007446289	1.03197998046875	0.003136610031127929	-0.0375880012512207	1.04725	0.06393389892578125	-0.05334439849853516	0.9707349853515626	0.045189098358154295	-0.05839400100708008	0.9630150146484375	0.02100589942932129	-0.06166439819335937	0.9632080078125	-0.008200940132141113	-0.05422909927368164	0.9918099975585938	0.06734429931640624	-0.03296870040893555	0.977343017578125	0.05125230026245117	-0.03389419937133789	0.9621630249023437	0.02139590072631836	-0.034856998443603515	0.956239990234375	-0.013602399826049804	-0.030158199310302735	0.9845460205078125	0.06479930114746094	-0.017913200378417968	0.9916799926757812	0.053183998107910156	-0.01403820037841797	0.9753070068359375	0.026450700759887695	-0.009869379997253418	0.9640020141601563	-0.010211799621582031	-0.006764840126037597	0.9862659912109375	0.04349160003662109	-0.001423470020294189	1.0006799926757812	0.03848249816894531	0.0058664498329162595	0.985364990234375	0.022675800323486327	0.012519200325012208	0.9767119750976563	-0.003517770051956176	0.013881699562072754	0.9937039794921875	-0.0219419002532959	-0.008240630149841308	1.066760009765625
53	1.7666666666666666	0.028568300247192382	-0.11024800109863281	0.9919569702148437	0.025349700927734375	-0.0870261001586914	1.00772998046875	0.01067140007019043	-0.07061620330810547	1.0316500244140625	0.0032334001064300527	-0.0367682991027832	1.0469300537109374	0.06454689788818359	-0.05537289810180664	0.96114697265625	0.04407600021362305	-0.059340499877929685	0.9575750122070312	0.020075300216674804	-0.06124520111083984	0.9615079956054687	-0.007229360103607177	-0.05345199966430664	0.9917319946289063	0.07000559997558593	-0.03235340118408203	0.964989990234375	0.0504370002746582	-0.03313589859008789	0.9546060180664062	0.019839500427246092	-0.03376729965209961	0.9538350219726562	-0.012977100372314454	-0.029294300079345702	0.9844979858398437	0.0694552001953125	-0.015934300422668458	0.9800809936523438	0.054089401245117186	-0.01189430046081543	0.9676909790039062	0.025426700592041017	-0.008115070343017578	0.9614949951171875	-0.009649660110473633	-0.0059851698875427245	0.9866160278320313	0.04678870010375977	0.000675484001636505	0.9968800048828125	0.038839599609375	0.008455949783325195	0.982677001953125	0.021945499420166017	0.014612000465393066	0.9760499877929687	-0.00313371992111206	0.01472350025177002	0.9937979736328125	-0.022215599060058593	-0.00790093994140625	1.06668994140625
54	1.8	0.030341400146484374	-0.10863600158691407	0.9916129760742187	0.026772100448608397	-0.08560150146484374	1.0075399780273437	0.011456500053405762	-0.06964710235595703	1.031489990234375	0.003382100105285644	-0.035942798614501954	1.0468499755859375	0.06371099853515624	-0.05722470092773437	0.9528200073242188	0.04235649871826172	-0.05987099838256836	0.953176025390625	0.019292999267578125	-0.0608036003112793	0.9603090209960937	-0.006336589813232422	-0.052561599731445315	0.991697998046875	0.07057740020751953	-0.03169300079345703	0.9543510131835937	0.049043498992919925	-0.03228639984130859	0.9486320190429688	0.018190700531005858	-0.03260139846801758	0.9520819702148438	-0.012183500289916991	-0.02845199966430664	0.98460400390625	0.07127310180664062	-0.013387399673461914	0.9696610107421875	0.053542301177978514	-0.009590609550476074	0.96052001953125	0.02373270034790039	-0.006388649940490722	0.9590750122070313	-0.00931307029724121	-0.005224850177764893	0.9867490234375	0.04938769912719727	0.0027763600349426268	0.9924940185546876	0.03917720031738281	0.010647899627685547	0.9802360229492187	0.021363000869750976	0.01645560073852539	0.975291015625	-0.003097409963607788	0.015526900291442871	0.994198974609375	-0.022487499237060546	-0.007618780136108398	1.06675
55	1.8333333333333333	0.032083999633789065	-0.10705799865722657	0.9914749755859374	0.027784400939941407	-0.08414869689941407	1.0073900146484376	0.012101300239562988	-0.06858699798583984	1.0314000244140624	0.003467730045318603	-0.035098499298095706	1.0468499755859375	0.06216989898681641	-0.05843529891967773	0.9456790161132812	0.040760601043701175	-0.06013700103759766	0.949406982421875	0.018499799728393555	-0.06012170028686523	0.9592000122070312	-0.005537240028381347	-0.051559700012207034	0.9917550048828125	0.0700103988647461	-0.030682199478149413	0.9451820068359374	0.04699079895019531	-0.03127140045166016	0.9435989990234375	0.01724139976501465	-0.031436399459838865	0.9509990234375	-0.01138070011138916	-0.027502599716186522	0.9848410034179688	0.07162899780273438	-0.010628999710083008	0.9599329833984375	0.051999801635742186	-0.0072150201797485354	0.9549860229492187	0.02253000068664551	-0.004667990207672119	0.9574180297851562	-0.008894399642944336	-0.004334909915924072	0.9870989990234375	0.0514557991027832	0.005589250087738037	0.9885180053710938	0.03928390121459961	0.013181699752807616	0.9778519897460938	0.02061720085144043	0.018272600173950194	0.9747340087890625	-0.0030423800945281977	0.01646549987792969	0.9945009765625	-0.022826400756835938	-0.007288619995117186	1.0667900390625
56	1.8666666666666667	0.03447639846801758	-0.10506199645996094	0.991198974609375	0.029413700103759766	-0.08254499816894531	1.0071300048828125	0.013026100158691406	-0.06746649932861327	1.03122998046875	0.0036636600494384763	-0.03430319976806641	1.0466600341796874	0.05964469909667969	-0.05912779998779297	0.9395260009765625	0.038817100524902344	-0.0600620002746582	0.9463189697265625	0.01763059997558594	-0.0593213005065918	0.9584089965820313	-0.004905250072479248	-0.05057160186767578	0.9915360107421874	0.06791200256347656	-0.029596000671386718	0.93756298828125	0.044877498626708985	-0.03013249969482422	0.9391630249023437	0.01604050064086914	-0.03028770065307617	0.9500020141601563	-0.01133180046081543	-0.02660070037841797	0.9849249877929688	0.07071389770507812	-0.007774139881134033	0.9517579956054687	0.05024409866333008	-0.0048481101989746095	0.949926025390625	0.021352399826049806	-0.0030524299144744868	0.9561599731445313	-0.008656370162963866	-0.003526309967041015	0.987448974609375	0.0528927001953125	0.008334659576416015	0.9846259765625	0.03905530166625976	0.015524399757385255	0.9761279907226562	0.01988159942626953	0.019991600036621093	0.9745440063476563	-0.002824700117111206	0.01718910026550293	0.9948510131835937	-0.0229507999420166	-0.006916349887847901	1.066969970703125
